<svg id="Layer_1" data-name="Layer 1" xmlns="http://www.w3.org/2000/svg" viewBox="0 0 128.47 128.47"><defs><style>.cls-1{fill:#0171ff;}.cls-2{fill:#fff;}</style></defs><path class="cls-1" d="M36.22,0h74.13a18.11,18.11,0,0,1,18.11,18.11V92.24a36.22,36.22,0,0,1-36.22,36.22H18.11A18.11,18.11,0,0,1,0,110.35V36.22A36.22,36.22,0,0,1,36.22,0Z"/><path class="cls-2" d="M136.47,93.12a33.49,33.49,0,0,1,0-20.3l9.41-29.63a2,2,0,0,0-2.56-2.34l-37.19,7.86a22.34,22.34,0,0,1-9.14,0l-37.2-7.86a2,2,0,0,0-2.55,2.34l9.41,29.63a33.49,33.49,0,0,1,0,20.3l-9.41,29.63a2,2,0,0,0,2.55,2.34L97,117.24a22,22,0,0,1,9.14,0l37.19,7.85a2,2,0,0,0,2.56-2.34Z" transform="translate(-37.33 -17.17)"/></svg>